<svg version="1.1" xmlns="http://www.w3.org/2000/svg" xmlns:xlink="http://www.w3.org/1999/xlink" x="0px" y="0px" viewBox="0 0 32 32" style="enable-background:new 0 0 32 32;" xml:space="preserve">
<g id="Guides">
</g>
<g id="_x32_0">
</g>
<g id="_x31_9">
</g>
<g id="_x31_8">
</g>
<g id="_x31_7">
</g>
<g id="_x31_6">
</g>
<g id="_x31_5">
</g>
<g id="_x31_4">
<path d="M16,30C8.2803,30,2,23.7197,2,16S8.2803,2,16,2s14,6.2803,14,14S23.7197,30,16,30z M16,4C9.3828,4,4,9.3828,4,16
		s5.3828,12,12,12s12-5.3828,12-12S22.6172,4,16,4z" id="id_101" style="fill: #177e89;"></path>
<path d="M16,30c-0.5527,0-1-0.4473-1-1v-6h-1v1c0,0.3848-0.2207,0.7344-0.5664,0.9014c-0.3467,0.166-0.7588,0.1191-1.0586-0.1201
		l-5-4C7.1377,20.5908,7,20.3037,7,20s0.1377-0.5908,0.375-0.7813l5-4c0.3008-0.2402,0.71-0.2861,1.0586-0.1201
		C13.7793,15.2656,14,15.6152,14,16v1h1v-3c0-0.5527,0.4473-1,1-1h3c0.5264,0,0.957,0.4063,0.9971,0.9219L22.3994,12l-2.4023-1.9219
		C19.957,10.5938,19.5264,11,19,11h-3c-0.5527,0-1-0.4473-1-1V3c0-0.5527,0.4473-1,1-1s1,0.4473,1,1v6h1V8
		c0-0.3848,0.2207-0.7344,0.5664-0.9014s0.7578-0.1201,1.0586,0.1201l5,4C24.8623,11.4092,25,11.6963,25,12
		s-0.1377,0.5908-0.375,0.7813l-5,4c-0.2998,0.2412-0.71,0.2871-1.0586,0.1201C18.2207,16.7344,18,16.3848,18,16v-1h-1v3
		c0,0.5527-0.4473,1-1,1h-3c-0.5264,0-0.957-0.4063-0.9971-0.9219L9.6006,20l2.4023,1.9219C12.043,21.4063,12.4736,21,13,21h3
		c0.5527,0,1,0.4473,1,1v7C17,29.5527,16.5527,30,16,30z" id="id_102" style="fill: #db3a34;"></path>
</g>
<g id="_x31_3">
</g>
<g id="_x31_2">
</g>
<g id="_x31_1">
</g>
<g id="_x31_0">
</g>
<g id="_x30_9">
</g>
<g id="_x30_8">
</g>
<g id="_x30_7">
</g>
<g id="_x30_6">
</g>
<g id="_x30_5">
</g>
<g id="_x30_4">
</g>
<g id="_x30_3">
</g>
<g id="_x30_2">
</g>
<g id="_x30_1">
</g>
</svg>