<svg id="Layer_1" data-name="Layer 1" xmlns="http://www.w3.org/2000/svg" viewBox="0 0 64 64">
    <path
        d="M56.75586,39.86047a2.89166,2.89166,0,0,1,2.72784-2.08514h1.94812a29.63393,29.63393,0,0,0-.00012-11.55084h-1.948a2.89161,2.89161,0,0,1-2.72784-2.08509,25.78282,25.78282,0,0,0-1.694-4.07824,2.89366,2.89366,0,0,1,.45367-3.40906l1.38532-1.38538a30.16429,30.16429,0,0,0-8.16767-8.1676L47.34778,8.4845a2.89357,2.89357,0,0,1-3.409.45367,25.77,25.77,0,0,0-4.07831-1.694A2.89176,2.89176,0,0,1,37.77539,4.5163V2.56818a29.6367,29.6367,0,0,0-11.55078,0V4.5163a2.89176,2.89176,0,0,1-2.08508,2.72784,25.77,25.77,0,0,0-4.07831,1.694,2.89357,2.89357,0,0,1-3.409-.45367L15.26685,7.09912a30.16429,30.16429,0,0,0-8.16767,8.1676L8.4845,16.6521a2.89366,2.89366,0,0,1,.45367,3.40906,25.78282,25.78282,0,0,0-1.694,4.07824A2.89161,2.89161,0,0,1,4.5163,26.22449H2.5683a29.63393,29.63393,0,0,0-.00012,11.55084H4.5163a2.89166,2.89166,0,0,1,2.72784,2.08514,25.78266,25.78266,0,0,0,1.694,4.07819,2.89373,2.89373,0,0,1-.45367,3.40912L7.09918,48.73315a30.15985,30.15985,0,0,0,8.16754,8.16767l1.3855-1.38538a2.89376,2.89376,0,0,1,3.409-.45373,25.76436,25.76436,0,0,0,4.07831,1.694,2.89179,2.89179,0,0,1,2.08508,2.728v1.94812a29.6367,29.6367,0,0,0,11.55078,0V59.4837a2.89179,2.89179,0,0,1,2.08508-2.728,25.76436,25.76436,0,0,0,4.07831-1.694,2.89376,2.89376,0,0,1,3.409.45373l1.3855,1.38538a30.15985,30.15985,0,0,0,8.16754-8.16767L55.5155,47.34778a2.89373,2.89373,0,0,1-.45367-3.40912A25.78266,25.78266,0,0,0,56.75586,39.86047ZM35.5,52.68512V47.19a7.99237,7.99237,0,0,0-.5-14.6V41H29V32.6a7.98468,7.98468,0,0,0-.5,14.59v5.49512a21,21,0,1,1,7,0Z"
        id="id_101" style="fill: #177e89;">
    </path>
    <path
        d="M36.96277,21a4.66034,4.66034,0,0,0-.08637-.87555l1.12336-.62726a5.945,5.945,0,0,0-1.65027-2.77356l-.65131.36371a.82658.82658,0,0,1-.8587-.02014,5.0054,5.0054,0,0,0-.7378-.41113.77476.77476,0,0,1-.44744-.70954V15.2204a6.276,6.276,0,0,0-3.30854.00293v.7232a.77477.77477,0,0,1-.44745.70954,5.00466,5.00466,0,0,0-.73773.41113.82669.82669,0,0,1-.85876.02014l-.64813-.36194A5.94517,5.94517,0,0,0,26,19.49707l1.12354.62738a4.481,4.481,0,0,0,0,1.7511l-1.12336.62726a5.94444,5.94444,0,0,0,1.65027,2.77356l.65137-.36377a.827.827,0,0,1,.85876.0202,4.9897,4.9897,0,0,0,.73767.41107.77486.77486,0,0,1,.44745.7096v.72613a6.276,6.276,0,0,0,3.30854-.00293v-.7232a.77485.77485,0,0,1,.44744-.7096,4.989,4.989,0,0,0,.7378-.41113.827.827,0,0,1,.8587-.02014l.64813.362A5.94536,5.94536,0,0,0,38,22.50293l-1.1236-.62738A4.65985,4.65985,0,0,0,36.96277,21ZM32,23a2,2,0,1,1,2-2A2,2,0,0,1,32,23Z"
        id="id_102" style="fill: #db3a34;">
    </path>
</svg>